<?xml version="1.0" encoding="UTF-8" standalone="no"?><!DOCTYPE svg PUBLIC "-//W3C//DTD SVG 1.1//EN" "http://www.w3.org/Graphics/SVG/1.1/DTD/svg11.dtd"><svg width="100%" height="100%" viewBox="0 0 707 706" version="1.1" xmlns="http://www.w3.org/2000/svg" xmlns:xlink="http://www.w3.org/1999/xlink" xml:space="preserve" xmlns:serif="http://www.serif.com/" style="fill-rule:evenodd;clip-rule:evenodd;stroke-linejoin:round;stroke-miterlimit:2;"><path d="M53.754,245.938l599.008,0l0,372.452c0,18.629 -15.116,33.745 -33.745,33.745l-531.518,0c-18.629,0 -33.745,-15.116 -33.745,-33.745l-0,-372.452Zm13.799,-191.431c-37.32,-0 -67.553,30.232 -67.553,67.553l-0,516.025c-0,37.32 30.233,67.553 67.553,67.553l571.41,0c37.321,0 67.553,-30.233 67.553,-67.553l0,-516.025c0,-37.321 -30.232,-67.553 -67.553,-67.553l-65.107,-0l0,54.506c-0.251,31.676 -26.155,57.204 -57.831,56.89c-31.361,-0.251 -56.702,-25.591 -56.953,-56.89l0,-54.506l-211.628,-0l-0,54.506c-0,31.676 -25.717,57.392 -57.392,57.392c-31.738,0 -57.392,-25.716 -57.455,-57.392l0,-54.506l-65.044,-0" style="fill:#040606;fill-rule:nonzero;"/><path d="M542.871,108.261l-0,-81.854c-0,-14.615 -11.855,-26.407 -26.469,-26.407c-14.552,0.063 -26.281,11.855 -26.344,26.407l-0,81.854c0.063,14.614 11.917,26.406 26.469,26.343c14.552,-0.062 26.344,-11.792 26.344,-26.343" style="fill:#040606;fill-rule:nonzero;"/><path d="M216.458,26.407c-0.062,-14.615 -11.917,-26.407 -26.469,-26.344c-14.552,-0 -26.344,11.792 -26.344,26.344l0,81.854c0,14.614 11.855,26.406 26.47,26.343c14.551,-0.062 26.281,-11.792 26.343,-26.343l0,-81.854" style="fill:#040606;fill-rule:nonzero;"/></svg>