<?xml version="1.0" encoding="UTF-8" standalone="no"?><!DOCTYPE svg PUBLIC "-//W3C//DTD SVG 1.1//EN" "http://www.w3.org/Graphics/SVG/1.1/DTD/svg11.dtd"><svg width="100%" height="100%" viewBox="0 0 610 707" version="1.1" xmlns="http://www.w3.org/2000/svg" xmlns:xlink="http://www.w3.org/1999/xlink" xml:space="preserve" xmlns:serif="http://www.serif.com/" style="fill-rule:evenodd;clip-rule:evenodd;stroke-linejoin:round;stroke-miterlimit:2;"><path d="M304.808,202.008l-229.859,0l34.93,440.895c0.053,0.651 0.062,1.293 0.036,1.936c0.347,8.073 2.803,14.407 7.359,18.965c5.126,5.138 13.198,8.724 24.215,10.767l326.638,0c11.017,-2.034 19.089,-5.629 24.215,-10.767c4.734,-4.746 7.208,-11.409 7.395,-19.973c0,-0.312 0.018,-0.625 0.045,-0.928l-0.045,0l34.93,-440.895l-229.859,0l-0,0Zm-138.499,107.682c-0.685,-8.734 5.829,-16.361 14.533,-17.048c8.712,-0.687 16.321,5.843 17.006,14.568l20.575,259.68c0.685,8.733 -5.82,16.361 -14.532,17.047c-8.713,0.678 -16.322,-5.843 -17.007,-14.567l-20.575,-259.68Zm245.459,-2.48c0.676,-8.734 8.294,-15.255 17.006,-14.568c8.713,0.687 15.218,8.314 14.533,17.048l-20.575,259.68c-0.676,8.733 -8.294,15.254 -17.007,14.567c-8.712,-0.686 -15.217,-8.322 -14.532,-17.047l20.575,-259.68Zm-122.792,1.24c0,-8.76 7.093,-15.87 15.832,-15.87c8.739,-0 15.832,7.11 15.832,15.87l-0,259.68c-0,8.769 -7.093,15.879 -15.832,15.879c-8.748,-0 -15.832,-7.11 -15.832,-15.879l0,-259.68Zm264.797,-197.263l-497.93,0c-6.292,0 -12.121,3.042 -16.437,7.948c-4.77,5.415 -7.734,13.051 -7.734,21.597l0,29.537l546.272,-0l-0,-29.537c-0,-8.546 -2.964,-16.182 -7.734,-21.597c-4.316,-4.897 -10.145,-7.948 -16.437,-7.948Zm-497.93,-31.749l148.261,0l0,-5.165c0,-18.465 3.862,-35.575 10.092,-48.251c7.885,-16.058 19.996,-26.022 34.422,-26.022l112.38,-0c14.425,-0 26.537,9.973 34.422,26.022c6.23,12.685 10.101,29.795 10.101,48.26l-0,5.165l148.261,0c15.707,0 29.884,7.173 40.073,18.734c9.727,11.044 15.77,26.128 15.77,42.551l-0,45.406c-0,8.769 -7.093,15.879 -15.832,15.879l-27.374,0l-35.134,443.375l-0.027,-0c-0.552,16.762 -6.06,30.384 -16.517,40.865c-9.842,9.867 -23.725,16.406 -41.639,19.608c-1.211,0.294 -2.474,0.455 -3.774,0.455l-329.04,0l-0,-0.036c-0.855,0 -1.727,-0.071 -2.599,-0.214c-18.484,-3.131 -32.758,-9.732 -42.814,-19.813c-10.368,-10.392 -15.868,-23.862 -16.499,-40.419l-0.045,-0.446l-35.134,-443.375l-27.365,0c-8.748,0 -15.832,-7.109 -15.832,-15.878l0,-45.407c0,-16.432 6.043,-31.507 15.769,-42.551c10.19,-11.561 24.367,-18.743 40.074,-18.743Zm179.925,0l138.071,0l0,-5.165c0,-13.657 -2.589,-25.762 -6.754,-34.246c-2.51,-5.112 -4.743,-8.287 -6.087,-8.287l-112.389,-0c-1.344,-0 -3.577,3.175 -6.087,8.287c-4.165,8.484 -6.754,20.589 -6.754,34.246l-0,5.165Z"/></svg>