<?xml version="1.0" encoding="UTF-8" standalone="no"?><!DOCTYPE svg PUBLIC "-//W3C//DTD SVG 1.1//EN" "http://www.w3.org/Graphics/SVG/1.1/DTD/svg11.dtd"><svg width="100%" height="100%" viewBox="0 0 1671 441" version="1.1" xmlns="http://www.w3.org/2000/svg" xmlns:xlink="http://www.w3.org/1999/xlink" xml:space="preserve" xmlns:serif="http://www.serif.com/" style="fill-rule:evenodd;clip-rule:evenodd;stroke-linejoin:round;stroke-miterlimit:2;"><g><path d="M25.93,135.915l216.91,0l-0,45.873l-78.031,0l0,189.481l-27.289,-0c-18.447,-0 -33.402,-14.954 -33.402,-33.401c0,-54.387 0,-156.08 0,-156.08l-78.188,0l0,-45.873Z" style="fill:url(#_Linear1);fill-rule:nonzero;"/><path d="M309.205,291.819c-11.77,0 -20.624,1.997 -26.562,5.991c-5.937,3.993 -8.906,9.878 -8.906,17.655c-0,7.146 2.391,12.742 7.172,16.789c4.782,4.046 11.429,6.069 19.942,6.069c10.614,-0 19.547,-3.81 26.798,-11.429c7.251,-7.619 10.877,-17.156 10.877,-28.611l0,-6.464l-29.321,0Zm86.228,-21.281l0,100.731l-56.907,-0l0,-26.168c-7.567,10.719 -16.079,18.522 -25.537,23.409c-9.459,4.887 -20.966,7.33 -34.523,7.33c-18.286,0 -33.13,-5.333 -44.533,-16c-11.402,-10.667 -17.103,-24.513 -17.103,-41.537c-0,-20.704 7.12,-35.889 21.36,-45.558c14.24,-9.668 36.598,-14.503 67.074,-14.503l33.262,0l0,-4.413c0,-8.933 -3.52,-15.475 -10.562,-19.626c-7.041,-4.151 -18.023,-6.227 -32.946,-6.227c-12.086,0 -23.33,1.209 -33.734,3.626c-10.405,2.417 -20.073,6.042 -29.006,10.877l0,-43.035c12.086,-2.943 24.224,-5.176 36.414,-6.7c12.191,-1.524 24.382,-2.286 36.572,-2.286c31.843,0 54.832,6.279 68.967,18.838c14.135,12.558 21.202,32.973 21.202,61.242Z" style="fill:url(#_Linear2);fill-rule:nonzero;"/><path d="M585.86,200.232l0,42.877c-12.086,-5.044 -23.751,-8.827 -34.996,-11.35c-11.244,-2.522 -21.859,-3.783 -31.842,-3.783c-10.72,0 -18.681,1.34 -23.883,4.02c-5.202,2.68 -7.803,6.804 -7.803,12.374c0,4.519 1.971,7.987 5.912,10.404c3.941,2.418 11.008,4.204 21.202,5.36l9.931,1.419c28.901,3.678 48.343,9.721 58.326,18.128c9.984,8.408 14.976,21.597 14.976,39.567c-0,18.812 -6.936,32.947 -20.808,42.405c-13.872,9.458 -34.576,14.187 -62.11,14.187c-11.665,0 -23.724,-0.919 -36.178,-2.758c-12.453,-1.839 -25.248,-4.598 -38.384,-8.276l-0,-42.878c11.244,5.465 22.778,9.564 34.601,12.296c11.823,2.732 23.83,4.099 36.02,4.099c11.035,-0 19.337,-1.524 24.907,-4.572c5.57,-3.048 8.355,-7.567 8.355,-13.557c-0,-5.044 -1.918,-8.801 -5.754,-11.271c-3.836,-2.47 -11.481,-4.387 -22.936,-5.754l-9.931,-1.261c-25.117,-3.153 -42.72,-8.985 -52.809,-17.498c-10.089,-8.512 -15.133,-21.438 -15.133,-38.779c-0,-18.706 6.41,-32.578 19.232,-41.616c12.821,-9.038 32.473,-13.557 58.956,-13.557c10.404,0 21.334,0.788 32.789,2.365c11.455,1.576 23.908,4.046 37.36,7.409Z" style="fill:url(#_Linear3);fill-rule:nonzero;"/><path d="M640.088,125.984l56.434,0l-0,133.52l64.947,-64.79l65.577,0l-86.228,81.026l93.007,95.529l-68.415,-0l-68.888,-73.617l-0,73.617l-56.434,-0l-0,-245.285Z" style="fill:url(#_Linear4);fill-rule:nonzero;"/><path d="M1021.1,143.324l0,49.814c-12.926,-5.78 -25.537,-10.141 -37.833,-13.084c-12.295,-2.943 -23.908,-4.414 -34.838,-4.414c-14.502,0 -25.222,1.997 -32.158,5.99c-6.936,3.994 -10.404,10.194 -10.404,18.602c0,6.305 2.338,11.218 7.015,14.739c4.677,3.52 13.163,6.542 25.459,9.064l25.852,5.202c26.168,5.255 44.769,13.242 55.804,23.961c11.035,10.719 16.552,25.958 16.552,45.715c-0,25.958 -7.698,45.268 -23.094,57.932c-15.396,12.664 -38.91,18.995 -70.543,18.995c-14.923,0 -29.899,-1.418 -44.927,-4.256c-15.028,-2.837 -30.056,-7.041 -45.084,-12.611l-0,-51.232c15.028,7.987 29.557,14.003 43.587,18.049c14.029,4.046 27.56,6.069 40.591,6.069c13.242,0 23.383,-2.207 30.425,-6.62c7.041,-4.414 10.561,-10.72 10.561,-18.917c0,-7.356 -2.391,-13.031 -7.172,-17.025c-4.782,-3.993 -14.319,-7.566 -28.612,-10.719l-23.488,-5.202c-23.54,-5.045 -40.749,-13.084 -51.626,-24.119c-10.877,-11.035 -16.316,-25.905 -16.316,-44.611c0,-23.436 7.567,-41.459 22.7,-54.07c15.134,-12.611 36.888,-18.917 65.262,-18.917c12.927,0 26.221,0.972 39.883,2.917c13.662,1.944 27.797,4.86 42.404,8.748Z" style="fill:url(#_Linear5);fill-rule:nonzero;"/><path d="M1064.13,194.714l56.434,0l47.449,119.805l40.355,-119.805l56.435,0l-74.248,193.265c-7.461,19.652 -16.158,33.393 -26.089,41.222c-9.931,7.829 -23.041,11.744 -39.331,11.744l-32.631,-0l0,-37.045l17.656,-0c9.563,-0 16.526,-1.524 20.887,-4.572c4.361,-3.047 7.75,-8.512 10.168,-16.394l1.576,-4.887l-78.661,-183.333Z" style="fill:url(#_Linear6);fill-rule:nonzero;"/><path d="M1475.25,263.76l0,107.509l-23.699,-0c-8.765,-0 -17.172,-3.482 -23.37,-9.68c-6.198,-6.199 -9.68,-14.605 -9.68,-23.371c-0,-22.88 -0,-49.236 -0,-49.236c-0,-15.238 -0.342,-25.748 -1.025,-31.528c-0.683,-5.78 -1.865,-10.036 -3.547,-12.768c-2.207,-3.679 -5.202,-6.542 -8.985,-8.592c-3.783,-2.049 -8.092,-3.074 -12.926,-3.074c-11.771,0 -21.019,4.546 -27.745,13.636c-6.726,9.091 -10.089,21.675 -10.089,37.754l0,86.859l-23.012,-0c-8.864,-0 -17.365,-3.521 -23.633,-9.789c-6.268,-6.268 -9.789,-14.769 -9.789,-23.633c0,-51.187 0,-143.133 0,-143.133l56.434,0l0,25.853c8.513,-10.299 17.551,-17.892 27.114,-22.779c9.564,-4.886 20.125,-7.33 31.685,-7.33c20.388,0 35.863,6.253 46.425,18.759c10.562,12.506 15.842,30.687 15.842,54.543Z" style="fill:url(#_Linear7);fill-rule:nonzero;"/><path d="M1670.25,200.232l-0,46.03c-7.672,-5.255 -15.37,-9.143 -23.094,-11.665c-7.725,-2.522 -15.738,-3.784 -24.04,-3.784c-15.764,0 -28.034,4.598 -36.809,13.794c-8.775,9.195 -13.162,22.043 -13.162,38.542c-0,16.5 4.387,29.347 13.162,38.543c8.775,9.195 21.045,13.793 36.809,13.793c8.828,0 17.209,-1.314 25.143,-3.941c7.934,-2.627 15.265,-6.516 21.991,-11.665l-0,46.188c-8.828,3.258 -17.787,5.701 -26.878,7.33c-9.09,1.629 -18.207,2.443 -27.35,2.443c-31.843,0 -56.75,-8.17 -74.72,-24.512c-17.971,-16.342 -26.956,-39.068 -26.956,-68.179c-0,-29.11 8.985,-51.836 26.956,-68.178c17.97,-16.342 42.877,-24.513 74.72,-24.513c9.248,0 18.365,0.815 27.35,2.444c8.986,1.628 17.945,4.072 26.878,7.33Z" style="fill:url(#_Linear8);fill-rule:nonzero;"/></g><circle cx="132.69" cy="39.026" r="39.026" style="fill:#ede461;"/><circle cx="39.026" cy="74.15" r="39.026" style="fill:#0d80fe;"/><circle cx="229.744" cy="74.15" r="39.026" style="fill:#3dac48;"/><defs><linearGradient id="_Linear1" x1="0" y1="0" x2="1" y2="0" gradientUnits="userSpaceOnUse" gradientTransform="matrix(1637.8,0,0,1637.8,25.93,283.149)"><stop offset="0" style="stop-color:#077dff;stop-opacity:1"/><stop offset="1" style="stop-color:#acd4e6;stop-opacity:1"/></linearGradient><linearGradient id="_Linear2" x1="0" y1="0" x2="1" y2="0" gradientUnits="userSpaceOnUse" gradientTransform="matrix(1637.8,0,0,1637.8,25.93,283.149)"><stop offset="0" style="stop-color:#077dff;stop-opacity:1"/><stop offset="1" style="stop-color:#acd4e6;stop-opacity:1"/></linearGradient><linearGradient id="_Linear3" x1="0" y1="0" x2="1" y2="0" gradientUnits="userSpaceOnUse" gradientTransform="matrix(1637.8,0,0,1637.8,25.93,283.149)"><stop offset="0" style="stop-color:#077dff;stop-opacity:1"/><stop offset="1" style="stop-color:#acd4e6;stop-opacity:1"/></linearGradient><linearGradient id="_Linear4" x1="0" y1="0" x2="1" y2="0" gradientUnits="userSpaceOnUse" gradientTransform="matrix(1637.8,0,0,1637.8,25.93,283.149)"><stop offset="0" style="stop-color:#077dff;stop-opacity:1"/><stop offset="1" style="stop-color:#acd4e6;stop-opacity:1"/></linearGradient><linearGradient id="_Linear5" x1="0" y1="0" x2="1" y2="0" gradientUnits="userSpaceOnUse" gradientTransform="matrix(1637.8,0,0,1637.8,25.93,283.149)"><stop offset="0" style="stop-color:#077dff;stop-opacity:1"/><stop offset="1" style="stop-color:#acd4e6;stop-opacity:1"/></linearGradient><linearGradient id="_Linear6" x1="0" y1="0" x2="1" y2="0" gradientUnits="userSpaceOnUse" gradientTransform="matrix(1637.8,0,0,1637.8,25.93,283.149)"><stop offset="0" style="stop-color:#077dff;stop-opacity:1"/><stop offset="1" style="stop-color:#acd4e6;stop-opacity:1"/></linearGradient><linearGradient id="_Linear7" x1="0" y1="0" x2="1" y2="0" gradientUnits="userSpaceOnUse" gradientTransform="matrix(1637.8,0,0,1637.8,25.93,283.149)"><stop offset="0" style="stop-color:#077dff;stop-opacity:1"/><stop offset="1" style="stop-color:#acd4e6;stop-opacity:1"/></linearGradient><linearGradient id="_Linear8" x1="0" y1="0" x2="1" y2="0" gradientUnits="userSpaceOnUse" gradientTransform="matrix(1637.8,0,0,1637.8,25.93,283.149)"><stop offset="0" style="stop-color:#077dff;stop-opacity:1"/><stop offset="1" style="stop-color:#acd4e6;stop-opacity:1"/></linearGradient></defs></svg>