<?xml version="1.0" encoding="UTF-8" standalone="no"?><!DOCTYPE svg PUBLIC "-//W3C//DTD SVG 1.1//EN" "http://www.w3.org/Graphics/SVG/1.1/DTD/svg11.dtd"><svg width="100%" height="100%" viewBox="0 0 707 707" version="1.1" xmlns="http://www.w3.org/2000/svg" xmlns:xlink="http://www.w3.org/1999/xlink" xml:space="preserve" xmlns:serif="http://www.serif.com/" style="fill-rule:evenodd;clip-rule:evenodd;stroke-linejoin:round;stroke-miterlimit:2;"><path d="M0,167.333c0,-92.416 74.917,-167.333 167.333,-167.333l371.85,0c92.416,0 167.333,74.917 167.333,167.333l0,371.85c0,92.416 -74.917,167.333 -167.333,167.333l-371.85,0c-92.416,0 -167.333,-74.917 -167.333,-167.333l0,-371.85Zm167.333,-130.148c-71.879,0 -130.148,58.269 -130.148,130.148l0,371.85c0,71.879 58.269,130.148 130.148,130.148l371.85,0c71.879,0 130.148,-58.269 130.148,-130.148l0,-371.85c0,-71.879 -58.269,-130.148 -130.148,-130.148l-371.85,0Z"/><path d="M292.037,284.332c7.258,7.262 7.258,19.035 -0,26.297l-74.372,74.37c-7.261,7.259 -19.033,7.259 -26.294,0l-37.185,-37.185c-7.261,-7.262 -7.261,-19.035 0,-26.297c7.261,-7.259 19.033,-7.259 26.294,-0l24.038,24.04l61.223,-61.225c7.261,-7.259 19.033,-7.259 26.296,-0Z"/><path d="M292.037,117.001c7.258,7.261 7.258,19.033 -0,26.294l-74.372,74.37c-7.261,7.261 -19.033,7.261 -26.294,-0l-37.185,-37.185c-7.261,-7.261 -7.261,-19.033 0,-26.294c7.261,-7.261 19.033,-7.261 26.294,0l24.038,24.038l61.223,-61.223c7.261,-7.261 19.033,-7.261 26.296,-0Z"/><path d="M371.851,334.666c-0,-10.267 8.325,-18.593 18.592,-18.593l148.74,0c10.267,0 18.593,8.326 18.593,18.593c-0,10.266 -8.326,18.592 -18.593,18.592l-148.74,0c-10.267,0 -18.592,-8.326 -18.592,-18.592Z"/><path d="M371.851,167.333c-0,-10.269 8.325,-18.593 18.592,-18.593l148.74,0c10.267,0 18.593,8.324 18.593,18.593c-0,10.268 -8.326,18.592 -18.593,18.592l-148.74,0c-10.267,0 -18.592,-8.324 -18.592,-18.592Z"/><path d="M371.851,501.998c-0,-10.266 8.325,-18.592 18.592,-18.592l148.74,-0c10.267,-0 18.593,8.326 18.593,18.592c-0,10.267 -8.326,18.593 -18.593,18.593l-148.74,-0c-10.267,-0 -18.592,-8.326 -18.592,-18.593Z"/><path d="M148.74,464.813c0,-10.266 8.324,-18.592 18.593,-18.592l111.555,-0c10.267,-0 18.593,8.326 18.593,18.592l-0,111.555c-0,10.267 -8.326,18.593 -18.593,18.593l-111.555,0c-10.269,0 -18.593,-8.326 -18.593,-18.593l0,-111.555Zm37.185,18.593l0,74.37l74.37,-0l0,-74.37l-74.37,-0Z"/></svg>