<?xml version="1.0" encoding="UTF-8" standalone="no"?><!DOCTYPE svg PUBLIC "-//W3C//DTD SVG 1.1//EN" "http://www.w3.org/Graphics/SVG/1.1/DTD/svg11.dtd"><svg width="100%" height="100%" viewBox="0 0 708 640" version="1.1" xmlns="http://www.w3.org/2000/svg" xmlns:xlink="http://www.w3.org/1999/xlink" xml:space="preserve" xmlns:serif="http://www.serif.com/" style="fill-rule:evenodd;clip-rule:evenodd;stroke-linejoin:round;stroke-miterlimit:2;"><path d="M353.999,252.408c69.57,-0 126.165,-56.444 126.165,-125.835c0,-69.392 -56.595,-125.832 -126.165,-125.832c-69.569,0 -126.165,56.444 -126.165,125.835c0,69.392 56.596,125.832 126.165,125.832Zm0,-218.11c51.007,0 92.52,41.398 92.52,92.278c0,50.881 -41.513,92.278 -92.52,92.278c-51.007,0 -92.52,-41.397 -92.52,-92.278c0,-50.88 41.513,-92.278 92.52,-92.278Z" style="fill-rule:nonzero;stroke:#000;stroke-width:1.48px;"/><path d="M555.862,302.743c46.374,0 84.109,-37.636 84.109,-83.889c0,-46.252 -37.735,-83.892 -84.109,-83.892c-46.373,-0 -84.109,37.636 -84.109,83.889c0,46.252 37.732,83.892 84.109,83.892Zm0,-134.224c27.829,-0 50.464,22.579 50.464,50.332c-0,27.752 -22.638,50.332 -50.464,50.332c-27.829,-0 -50.464,-22.58 -50.464,-50.332c0,-27.753 22.635,-50.332 50.464,-50.332Z" style="fill-rule:nonzero;stroke:#000;stroke-width:1.48px;"/><path d="M152.136,302.743c46.374,0 84.109,-37.636 84.109,-83.889c0,-46.252 -37.731,-83.892 -84.109,-83.892c-46.377,-0 -84.108,37.637 -84.108,83.892c-0,46.256 37.735,83.889 84.108,83.889Zm0,-134.224c27.83,-0 50.464,22.579 50.464,50.332c0,27.752 -22.638,50.332 -50.464,50.332c-27.825,-0 -50.463,-22.576 -50.463,-50.329c-0,-27.752 22.638,-50.335 50.463,-50.335Z" style="fill-rule:nonzero;stroke:#000;stroke-width:1.48px;"/><path d="M662.918,369.346c-28.584,-28.525 -66.599,-44.239 -107.06,-44.239c-16.231,0 -32.124,2.711 -47.433,7.777c-41.275,-41.074 -96.105,-63.698 -154.426,-63.698c-58.321,0 -113.143,22.62 -154.418,63.687c-15.32,-5.062 -31.213,-7.77 -47.445,-7.77c-40.461,0 -78.475,15.715 -107.059,44.239c-28.599,28.513 -44.336,66.428 -44.336,106.764l0,145.414c0,9.272 7.523,16.779 16.823,16.779l672.871,-0c9.296,-0 16.822,-7.503 16.822,-16.779l0,-145.414c0,-40.336 -15.736,-78.251 -44.339,-106.76Zm-527.6,235.396l-100.932,-0l0,-128.636c0,-31.361 12.238,-60.853 34.482,-83.035c22.244,-22.186 51.814,-34.407 83.272,-34.407c8.054,0 16.001,0.861 23.802,2.474c-25.992,36.661 -40.624,80.974 -40.624,126.162l-0,117.442Zm403.722,-0l-370.081,-0l-0,-117.446c-0,-48.596 19.745,-96.161 54.193,-130.505c34.943,-34.855 81.417,-54.048 130.847,-54.048c49.43,0 95.904,19.193 130.847,54.052c34.448,34.343 54.194,81.905 54.194,130.504l-0,117.443Zm134.576,-0l-100.931,-0l-0,-117.446c-0,-45.184 -14.633,-89.489 -40.621,-126.151c7.797,-1.609 15.74,-2.484 23.798,-2.484c31.459,-0 61.028,12.224 83.272,34.406c22.244,22.186 34.482,51.678 34.482,83.036l0,128.639Z" style="fill-rule:nonzero;stroke:#000;stroke-width:1.48px;"/></svg>